<?xml version="1.0" encoding="UTF-8"?>
<svg width="550px" height="200px" viewBox="0 0 550 200" version="1.1" xmlns="http://www.w3.org/2000/svg" xmlns:xlink="http://www.w3.org/1999/xlink" style="background: #FFFFFF;">
    <!-- Generator: Sketch 48.2 (47327) - http://www.bohemiancoding.com/sketch -->
    <title>headspace</title>
    <desc>Created with Sketch.</desc>
    <defs></defs>
    <g id="Page-1" stroke="none" stroke-width="1" fill="none" fill-rule="evenodd">
        <g id="headspace" fill="#F47D31" fill-rule="nonzero">
            <g id="headspace-logo" transform="translate(42.000000, 51.000000)">
                <path d="M467.366684,36.4681939 C466.933613,35.8583656 466.313741,35.4043105 465.59972,35.1738972 C464.136738,34.6981296 462.532529,35.2212433 461.63676,36.4661716 C460.787747,37.6880964 460.787747,39.3051026 461.63676,40.5270274 C462.072033,41.136873 462.692936,41.5913475 463.407791,41.8233465 C464.48966,42.1796408 465.678167,41.9902963 466.594018,41.3157395 C467.187379,40.8746089 467.623975,40.2569029 467.84045,39.5522602 C468.151549,38.4804208 468.015316,37.4085813 467.36465,36.4681939 L467.366684,36.4681939 Z" id="Path"></path>
                <path d="M431,64.2879682 L431,37.7120318 C431,36.765404 431.767964,36 432.667148,36 L451.246709,36 C452.100719,36 452.782637,36.6822543 452.782637,37.5393362 C452.787225,37.9466071 452.627639,38.3388535 452.339285,38.6290485 C452.05093,38.9192435 451.657653,39.0833898 451.246709,39.0850686 L434.375169,39.0850686 L434.375169,49.3316751 L449.325724,49.3316751 C450.181885,49.3316751 450.865954,50.0523062 450.865954,50.8710113 C450.868242,51.2777445 450.707116,51.6686585 450.418142,51.9574643 C450.129169,52.2462701 449.736108,52.4092209 449.325724,52.4103475 L434.375169,52.4103475 L434.375169,62.9106673 L451.463976,62.9106673 C452.317986,62.9106673 452.999904,63.6014498 452.999904,64.4585317 C453.004498,64.8654087 452.844776,65.2572195 452.556297,65.5467394 C452.267818,65.8362592 451.874526,65.9994564 451.463976,66 L432.667148,66 C431.767964,66 431,65.2324639 431,64.2837041" id="Fill-13"></path>
                <path d="M465.19,38.19 L463.9975,38.19 L463.9975,36.64 C464.82,36.6675 465.78,36.55 466.3625,36.79 C466.9475,37.0475 466.8225,37.54 466.68,37.7975 C466.4875,38.06 466.245,38.1225 465.8375,38.1675 C465.67,38.18 465.43,38.1925 465.1875,38.1925 L465.19,38.19 Z M466.1275,38.7975 C466.555,38.7525 466.8775,38.6875 467.2475,38.475 C468.1275,37.8375 467.905,37.0475 467.54,36.575 C466.8775,35.9675 466.175,36.0325 465.5075,36 L463,36 L463,41 L464,41 L464,38.8325 L465.145,38.8325 L466.88,41 L468,41 L466.125,38.8 L466.1275,38.7975 Z" id="Fill-4"></path>
                <path d="M130,37.7014286 C130,36.7692857 130.731818,36 131.599545,36 C132.498636,36 133.234636,36.7714286 133.234636,37.7014286 L133.234636,49.3585714 L149.767455,49.3585714 L149.767455,37.7014286 C149.767455,36.7692857 150.503455,36 151.404636,36 C152.266091,36 153,36.7714286 153,37.7014286 L153,64.3007143 C153,65.2371429 152.268182,66 151.404636,66 C150.495633,65.991752 149.763967,65.2323317 149.767455,64.3007143 L149.767455,52.485 L133.234636,52.485 L133.234636,64.3007143 C133.238132,65.2315037 132.507731,65.9905811 131.599545,66 C130.733909,66 130,65.2371429 130,64.3007143 L130,37.7014286" id="Fill-5"></path>
                <path d="M167,64.2857143 L167,37.7121429 C167,36.765 167.7744,36 168.6676,36 L187.2444,36 C188.0958,36 188.7844,36.6814286 188.7844,37.5385714 C188.790865,37.9424594 188.632169,38.3322732 188.343291,38.6220892 C188.054413,38.9119052 187.659068,39.0779313 187.2444,39.0835714 L170.3748,39.0835714 L170.3748,49.3307143 L185.3238,49.3307143 C186.1818,49.3307143 186.8638,50.0528571 186.8638,50.8714286 C186.870855,51.2750805 186.712214,51.6647803 186.423086,51.954043 C186.133957,52.2433058 185.738256,52.4082042 185.3238,52.4121429 L170.3748,52.4121429 L170.3748,62.9121429 L187.46,62.9121429 C188.3136,62.9121429 189,63.6 189,64.4592857 C189,65.3164286 188.3136,66 187.46,66 L168.6676,66 C167.7744,66 167,65.2328571 167,64.2857143" id="Fill-6"></path>
                <path d="M224.024286,54.97267 L216.935714,39.9042472 L209.842857,54.97267 L224.024286,54.97267 Z M202.218571,63.595442 L214.730714,37.4656998 C215.167857,36.548566 215.834286,36 216.935714,36 L217.111429,36 C218.167857,36 218.872857,36.548566 219.267143,37.4656998 L231.777143,63.5590138 C231.91,63.8590109 232,64.1461509 232,64.3947199 C232,65.2797111 231.25,65.999704 230.322143,65.999704 C229.488571,65.999704 228.914286,65.4489952 228.607857,64.7782875 L225.393571,58.0004972 L208.48,58.0004972 L205.257143,64.8575724 C204.950714,65.5732797 204.378571,65.999704 203.581429,65.999704 C203.169942,66.0077378 202.772125,65.8519419 202.475533,65.5666052 C202.17894,65.2812684 202.00788,64.8897759 202,64.4782905 C202,64.2297215 202.042857,63.9382958 202.218571,63.595442 Z" id="Fill-7"></path>
                <path d="M256.877083,62.8778571 C264.070833,62.8778571 268.664583,57.7242857 268.664583,51.0814286 L268.664583,50.9914286 C268.664583,44.3528571 264.070833,39.1242857 256.877083,39.1242857 L250.210417,39.1242857 L250.210417,62.8778571 L256.877083,62.8778571 Z M247,37.7121429 C247,36.765 247.729167,36 248.583333,36 L256.877083,36 C265.81875,36 272,42.4757143 272,50.91 L272,50.9914286 C272,59.4471429 265.81875,66 256.877083,66 L248.58125,66 C247.727083,66 247,65.2328571 247,64.2857143 L247,37.7121429 Z" id="Fill-8"></path>
                <path d="M284.632385,62.0807143 C284.2196,61.7932633 283.982454,61.3232202 284.001014,60.8292857 C284.001014,59.9185714 284.720381,59.2135714 285.61134,59.2135714 C286.03812,59.2135714 286.414303,59.3742857 286.627693,59.5778571 C289.421564,61.9178571 292.222035,63.045 295.997061,63.045 C299.978878,63.045 302.609956,60.9578571 302.609956,58.0842857 L302.609956,57.9985714 C302.609956,55.2942857 301.127225,53.7557143 294.894912,52.4635714 C288.070827,50.9957143 284.933771,48.8378571 284.933771,44.0421429 L284.933771,43.9607143 C284.933771,39.3792857 289.045382,36 294.679322,36 C298.584142,36 301.422011,36.9621429 304.132286,38.88 C304.47107,39.1264286 304.853853,39.5871429 304.853853,40.2085714 C304.853853,41.0871429 304.132286,41.7921429 303.243527,41.7921429 C302.893274,41.806825 302.548701,41.7022692 302.268972,41.4964286 C299.769887,39.7114286 297.352199,38.9592857 294.597926,38.9592857 C290.737104,38.9592857 288.279817,41.0464286 288.279817,43.6628571 L288.279817,43.7507143 C288.279817,46.5 289.808747,48.045 296.331446,49.4121429 C302.950941,50.8328571 306,53.2114286 306,57.6642857 L306,57.75 C306,62.7514286 301.760795,66 295.871667,66 C291.546666,66 287.938833,64.6607143 284.632385,62.0807143" id="Fill-9"></path>
                <path d="M330.5798,52.2107143 C335.4506,52.2107143 338.6428,49.5685714 338.6428,45.6535714 L338.6428,45.57 C338.6428,41.3121429 335.4968,39.1007143 330.7492,39.1007143 L323.3176,39.1007143 L323.3176,52.2107143 L330.5776,52.2107143 L330.5798,52.2107143 Z M320,37.6992857 C320,36.7585714 320.7546,36 321.639,36 L330.9978,36 C337.6352,36 342,39.57 342,45.4414286 L342,45.525 C342,51.9535714 336.709,55.275 330.4566,55.275 L323.3176,55.275 L323.3176,64.2878571 C323.3176,65.2307143 322.5608,66 321.639,66 C320.7546,66 320,65.2328571 320,64.2857143 L320,37.7014286 L320,37.6992857 Z" id="Fill-10"></path>
                <path d="M372.024286,54.9726135 L364.933571,39.9042356 L357.840714,54.9726135 L372.026429,54.9726135 L372.024286,54.9726135 Z M350.220714,63.5953599 L362.730714,37.4656955 C363.174286,36.5485644 363.834286,36 364.933571,36 L365.115714,36 C366.172143,36 366.872857,36.5485644 367.271429,37.4656955 L379.781429,63.5589318 C379.916429,63.8589279 380,64.1460671 380,64.3946353 C380,65.2796239 379.254286,65.9996147 378.328571,65.9996147 C377.492857,65.9996147 376.918571,65.4489075 376.612143,64.7782018 L373.393571,58.0004317 L356.473571,58.0004317 L353.259286,64.8574865 C352.950714,65.5731916 352.376429,65.9996147 351.583571,65.9996147 C351.171555,66.0087996 350.772857,65.8534506 350.475672,65.5679314 C350.178487,65.2824122 350.007308,64.8902548 350,64.4782057 C350,64.2296374 350.042857,63.9382126 350.220714,63.5953599 Z" id="Fill-11"></path>
                <path d="M391,52.588 L391,52.4934 C391,43.4734 396.93125,36 405.1875,36 C409.7125,36 412.597917,37.6808 415.202083,40.147 C415.598728,40.5192592 415.829876,41.049721 415.839583,41.61 C415.839583,42.5648 415.077083,43.3876 414.239583,43.3876 C413.797917,43.3876 413.435417,43.1522 413.197917,42.9718 C411.035417,40.7784 408.589583,39.3264 405.141667,39.3264 C398.933333,39.3264 394.2875,45.0684 394.2875,52.4054 L394.2875,52.4934 C394.2875,59.8832 398.975,65.6758 405.141667,65.6758 C408.629167,65.6758 411.075,64.3118 413.475,61.7972 C413.731356,61.4898966 414.095804,61.3070098 414.483333,61.2912 C415.28125,61.2912 416,62.114 416,63.0248 C416,63.5792 415.7625,64.0368 415.483333,64.3118 C412.71875,67.1762 409.670833,69 405.066667,69 C396.970833,69 391,61.7532 391,52.588" id="Fill-12"></path>
                <path d="M99.8800304,49.4145601 C101.03981,65.7974239 93.5204328,75.0933304 88.9815179,81.5945006 C81.9226417,89.1202655 72.9833883,99.3811229 50.2696261,99.9519989 C31.003222,100.718847 21.524586,92.1514467 13.5873477,84.7087571 C3.22608581,73.1868601 0.518513253,66.37043 0.000450156635,49.4145601 C-0.048584622,39.0195042 3.91044077,28.6414894 10.845664,19.5138635 C20.5673419,5.64029808 36.0026374,0.996605069 50.2696261,0.0316541824 C65.2358933,-0.55413278 77.1406848,7.08239907 85.2740622,15.3047179 C95.6736992,26.3963277 98.8673556,35.9201587 99.8778985,49.4166903" id="Fill-15"></path>
            </g>
        </g>
    </g>
</svg>