<?xml version="1.0" encoding="UTF-8" standalone="no"?>
<svg width="140px" height="80px" viewBox="0 0 140 80" version="1.1" xmlns="http://www.w3.org/2000/svg" xmlns:xlink="http://www.w3.org/1999/xlink">
      <g id="jsla-logo-2016" transform="translate(-659.000000, -151.000000)" fill="#494949">
          <g id="Group" transform="translate(659.000000, 151.000000)">
              <path d="M0.358974359,75.1054131 L5.94301994,68.4045584 C6.86039886,69.2421652 7.77777778,69.7606838 8.6951567,69.7606838 C10.4501425,69.7606838 11.2877493,68.7635328 11.2877493,66.8888889 L11.2877493,25.048433 L22.5356125,25.048433 L22.5356125,66.4900285 C22.5356125,74.7065527 18.1082621,79.4131054 9.77207977,79.4131054 C5.58404558,79.4131054 2.03418803,77.2193732 0.358974359,75.1054131 L0.358974359,75.1054131 Z M9.77207977,11.965812 C9.77207977,7.85754986 13.1225071,4.90598291 16.951567,4.90598291 C20.7806268,4.90598291 24.0512821,7.85754986 24.0512821,11.965812 C24.0512821,16.1538462 20.8205128,19.1054131 16.951567,19.1054131 C13.0826211,19.1054131 9.77207977,16.1538462 9.77207977,11.965812 L9.77207977,11.965812 Z" id="Shape"></path>
              <path d="M29.0769231,54.7236467 L35.6581197,48.8603989 C38.0911681,51.2136752 41.1623932,52.6495726 44.4729345,52.6495726 C48.1424501,52.6495726 49.2991453,51.97151 49.2991453,50.4558405 C49.2991453,48.5413105 47.0655271,48.5413105 41.3219373,47.025641 C36.4957265,45.7492877 31.0712251,43.0769231 31.0712251,35.6182336 C31.0712251,27.5612536 37.2535613,24.2905983 44.8319088,24.2905983 C50.6552707,24.2905983 54.8433048,26.2051282 57.7549858,29.2364672 L51.7720798,35.6980057 C50.0968661,34.2621083 47.6239316,33.025641 44.951567,33.025641 C42.3589744,33.025641 41.1225071,33.7037037 41.1225071,35.1396011 C41.1225071,37.1339031 43.3561254,37.4131054 48.2222222,38.4900285 C53.3675214,39.6467236 59.8689459,42.0797721 59.8689459,49.6581197 C59.8689459,56.1994302 56.4387464,61.5840456 45.3105413,61.5840456 C37.014245,61.5441595 32.1880342,58.4330484 29.0769231,54.7236467 L29.0769231,54.7236467 Z" id="Shape"></path>
              <path d="M65.6524217,54.1652422 C65.6524217,50.0569801 68.8831909,47.1054131 72.7521368,47.1054131 C76.5014245,47.1054131 79.7321937,50.0569801 79.7321937,54.1652422 C79.7321937,58.3532764 76.5014245,61.3048433 72.7521368,61.3048433 C68.9230769,61.2649573 65.6524217,58.3532764 65.6524217,54.1652422 L65.6524217,54.1652422 Z" id="Shape"></path>
              <polygon id="Shape" points="87.7492877 0.239316239 98.9173789 0.239316239 98.9173789 60.7863248 87.7492877 60.7863248"></polygon>
              <path d="M122.968661,33.6239316 C118.700855,33.6239316 116.467236,35.4586895 114.871795,36.8945869 L108.609687,30.1937322 C111.960114,26.9230769 115.709402,24.3304843 124.005698,24.3304843 C133.099715,24.3304843 140,29.2763533 140,40.5242165 L140,60.8262108 L128.831909,60.8262108 L129.071225,55.8803419 C126.39886,59.988604 123.327635,61.5840456 118.581197,61.5840456 C112.079772,61.5840456 106.096866,58.6324786 106.096866,50.3361823 C106.096866,42.7179487 111.840456,39.6068376 120.575499,39.6068376 L128.831909,39.6068376 C128.712251,35.4586895 126.717949,33.6239316 122.968661,33.6239316 L122.968661,33.6239316 Z M121.213675,46.2678063 C118.381766,46.2678063 117.145299,47.5441595 117.145299,49.5384615 C117.145299,51.5327635 118.820513,52.7293447 121.97151,52.7293447 C126.558405,52.7293447 128.871795,50.7350427 128.871795,47.7037037 L128.871795,46.2678063 L121.213675,46.2678063 L121.213675,46.2678063 Z" id="Shape"></path>
          </g>
      </g>
</svg>
