<svg
   xmlns="http://www.w3.org/2000/svg"
   width="140"
   height="49"
   version="1.1">
  <g
     transform="matrix(0.34377224,0,0,0.34377224,0.82275195,-312.86567)">
    <g
       transform="matrix(1.2614918,0,0,1.2614918,483.17191,487.69927)">
      <path
         d="m -348.42242,447.50317 c 19.83998,0 33.44,-10.56002 33.44,-33.76 l 0,-76.48 -22.4,0 0,76.16 c 0,11.19999 -4.64,14.08 -12,14.08 -7.67999,0 -10.88,-5.28 -14.4,-11.52 l -18.24,11.04 c 5.28,11.19999 15.68002,20.48 33.6,20.48"
         style="fill:#000000;fill-opacity:1;stroke:none"/>
      <path
         d="m -262.00742,447.50317 c 21.27998,0 37.12,-11.04002 37.12,-31.2 0,-18.71998 -10.72002,-27.04001 -29.76,-35.2 l -5.6,-2.4 c -9.59999,-4.15999 -13.76,-6.88001 -13.76,-13.6 0,-5.43999 4.16001,-9.6 10.72,-9.6 6.4,0 10.56001,2.72001 14.4,9.6 l 17.44,-11.2 c -7.35999,-12.95999 -17.60001,-17.92 -31.84,-17.92 -19.99998,0 -32.8,12.80002 -32.8,29.6 0,18.23998 10.72002,26.88001 26.88,33.76 l 5.6,2.4 c 10.23999,4.48 16.32,7.20001 16.32,14.88 0,6.39999 -5.92001,11.04 -15.2,11.04 -11.03999,0 -17.28,-5.76001 -22.08,-13.6 l -18.24,10.56 c 6.56,12.95999 20.00002,22.88 40.8,22.88"
         style="fill:#000000;fill-opacity:1;stroke:none"/>
      <path
         d="m -206.37254,447.50317 c 4.45846,0 8.32247,-3.4677 8.32247,-8.42155 0,-4.85477 -3.86401,-8.32247 -8.32247,-8.32247 -4.55754,0 -8.42155,3.4677 -8.42155,8.32247 0,4.95385 3.86401,8.42155 8.42155,8.42155"
         style="fill:#000000;fill-opacity:1;stroke:none"/>
      <path
         d="m -182.14694,447.50317 44.38652,0 0,-12.18648 -30.51573,0 0,-55.18592 -13.87079,0 0,67.3724"
         style="fill:#000000;fill-opacity:1;stroke:none"/>
      <path
         d="m -126.56346,447.50317 13.37541,0 3.17046,-7.62893 27.345274,0 3.170467,7.62893 14.564328,0 -30.812967,-67.96687 -1.188925,0 -29.624047,67.96687 m 21.2025,-19.22095 4.85477,-11.69109 c 1.981542,-4.7557 3.963085,-12.08741 3.963085,-12.08741 0,0 2.080621,7.33171 4.06216,12.08741 l 4.854776,11.69109 -17.734791,0"
         style="line-height:125%;fill:#000000;fill-opacity:1;stroke:none"/>
    </g>
  </g>
</svg>
